<?xml version="1.0" encoding="utf-8"?>
<!-- Generator: Adobe Adobe Illustrator 24.2.0, SVG Export Plug-In . SVG Version: 6.00 Build 0)  -->
<svg version="1.1" id="Layer_1" xmlns="http://www.w3.org/2000/svg" xmlns:xlink="http://www.w3.org/1999/xlink" x="0px" y="0px"
	 width="1080px" height="1080px" viewBox="0 0 1080 1080" style="enable-background:new 0 0 1080 1080;" xml:space="preserve">
<style type="text/css">
	.st0{fill:url(#SVGID_1_);}
	.st1{fill:url(#SVGID_2_);}
	.st2{fill:url(#SVGID_3_);}
	.st3{fill:url(#SVGID_4_);}
	.st4{fill:url(#SVGID_5_);}
	.st5{fill:#FFBF47;}
	.st6{opacity:0.2;}
	.st7{fill:url(#SVGID_6_);}
	.st8{fill:url(#SVGID_7_);}
	.st9{fill:url(#SVGID_8_);}
	.st10{fill:url(#SVGID_9_);}
	.st11{fill:#FFFFFF;}
</style>
<g>
	<linearGradient id="SVGID_1_" gradientUnits="userSpaceOnUse" x1="283.1178" y1="416.863" x2="852.2738" y2="416.863">
		<stop  offset="0" style="stop-color:#3A3F6F"/>
		<stop  offset="1" style="stop-color:#42537F"/>
	</linearGradient>
	<path class="st0" d="M393.44,541.38c-5.86,0-11.73-0.45-17.53-1.38c-28.54-4.54-54.96-20.31-72.51-43.26
		c-15.54-20.34-22.52-44.02-19.65-66.68l59.98,7.6c-0.84,6.6,2.04,14.96,7.71,22.37c8.1,10.6,20.8,18.17,33.97,20.27
		c13.17,2.1,27.59-1.17,38.58-8.73c37.43-25.76,38.09-53.69,13.2-140.87l58.01-17.03c7.47,37.51,6.83,21.31,18.52,66.53
		c3.61,15.47,7.58,30.75,12.06,44.25c6.02,18.13,11.22,27.79,14.73,32.84c1.04-6.85,1.8-18.82,0.75-39.38
		c-0.37-7.12-1.65-23.21-1.65-23.21l59.98-8.18c0,0,9.51,46.51,15.57,63.82c1.29,3.68,2.99,6.47,4.53,8.39
		c20.19-36.46-10.09-162.73-10.09-162.73l68.81-3.65c0,0,4.76,134.38,27.55,156.48c3.15,3.05,8.37,6.8,18.8,7.12
		c-4.99-5.93-9.3-13.01-12.57-21.46c-11.43-29.53-7.27-58.86,9.13-80.03c29.19-37.69,84.61-44.15,109.91-39.35l-9.21,74.77
		c-45.95-9.15-58.88,8.69-53.43,22.8c6.88,17.79,70.83,3.98,70.83,3.98l12.86,62.28c0,0-20.02,6.94-36.82,13.95
		c-23.36,9.75-47.51,19.83-77.05,22.89c-28.1,2.91-52.29-4.07-70.73-19.98c-7.96,11.24-20.21,22.5-38.2,25.45
		c-16.09,2.64-32.6-2.32-46.46-13.95c-0.19-0.16-0.38-0.32-0.56-0.48c-7.87,8.16-21.89,17.36-44.26,15.44
		c-22.55-1.94-38.22-16.82-48.83-32.72c-8.52,12.66-18.99,23.47-31.1,31.81C439.3,534.42,416.4,541.38,393.44,541.38z"/>
	<linearGradient id="SVGID_2_" gradientUnits="userSpaceOnUse" x1="245.6485" y1="633.2534" x2="880.9332" y2="633.2534">
		<stop  offset="0" style="stop-color:#3A3F6F"/>
		<stop  offset="1" style="stop-color:#42537F"/>
	</linearGradient>
	<path class="st1" d="M820.54,748.89c-3.16-66.19-20.07-223.2-20.24-224.78l60.11-6.49c0.7,6.52,17.27,160.39,20.52,228.39
		L820.54,748.89z"/>
	<linearGradient id="SVGID_3_" gradientUnits="userSpaceOnUse" x1="257.9128" y1="652.7394" x2="859.8047" y2="652.7394">
		<stop  offset="0" style="stop-color:#3A3F6F"/>
		<stop  offset="1" style="stop-color:#42537F"/>
	</linearGradient>
	<path class="st2" d="M633.61,775.96c-16.89,0-34.86-3.48-52.89-10.53l22.01-56.31c16.61,6.49,40.75,10.37,54.09-0.08
		c6.2-4.85,8.69-12.66,7.39-23.22c-1.65-6.81-11.17-24.26-19.78-39.24c-8.15-13.55-15.25-25.6-20.15-34.25
		c-0.34-0.59-0.66-1.16-0.96-1.7l66.58-22.39c0.31,0.55,22.6,54.82,48.71,95.65c-6.5-56.76-13.56-145.56-13.88-149.6l60.27-4.77
		c0.08,1.05,8.42,105.96,15.12,159.61c3.78,30.29-7.02,55.41-28.9,67.18c-19.16,10.31-42.83,8.01-58.9-5.73
		c-1.41-1.2-2.83-2.42-5.72-6.14c-3.66,4.46-7.84,8.55-12.52,12.21C677.73,769.45,656.69,775.96,633.61,775.96z M754.23,707.22
		C754.23,707.22,754.23,707.22,754.23,707.22C754.23,707.22,754.23,707.22,754.23,707.22z M664.26,686.03
		C664.26,686.03,664.26,686.03,664.26,686.03C664.26,686.03,664.26,686.03,664.26,686.03z"/>
	<linearGradient id="SVGID_4_" gradientUnits="userSpaceOnUse" x1="277.5475" y1="668.2772" x2="898.0167" y2="668.2772">
		<stop  offset="0" style="stop-color:#3A3F6F"/>
		<stop  offset="1" style="stop-color:#42537F"/>
	</linearGradient>
	<path class="st3" d="M447.31,787.66l-5.14-60.24c29.51-2.52,57.88-18.42,76.88-41.5c-16.16-1.25-28.57-6.53-37.85-15.89
		c-15.11-15.25-18.45-39.8-16.54-57.69c2.38-22.25,12.62-40.3,28.81-50.83c17.68-11.49,38.84-15.37,58.07-10.64
		c18.4,4.53,34.01,16.79,43.96,34.52c7.62,13.59,10.25,30.84,7.8,51.29c-2.08,17.39-7.38,33.14-10.35,40.98
		C570.11,737.98,511.57,782.18,447.31,787.66z M524.82,625.64c3.49,0.18,9.49,0,18.92-1.69c0.18-4.32-0.19-7.46-0.96-8.99
		c-2.59-4.62-4.91-5.19-5.67-5.38c-2.84-0.7-6.88,0.25-10.37,2.43C524.96,614.26,524.22,620.79,524.82,625.64z"/>
	<linearGradient id="SVGID_5_" gradientUnits="userSpaceOnUse" x1="257.8809" y1="667.554" x2="859.44" y2="667.554">
		<stop  offset="0" style="stop-color:#3A3F6F"/>
		<stop  offset="1" style="stop-color:#42537F"/>
	</linearGradient>
	<path class="st4" d="M299.55,778.21c-14.03,0-28.06-1.84-41.66-5.63l16.26-58.23c8.2,2.29,16.74,3.39,25.33,3.39
		c28.54,0,57.59-12.16,76.38-33.31c24.44-27.51,31.73-70.49,17.73-104.53l55.91-23.01c22.82,55.47,11.39,122.85-28.44,167.69
		C390.6,758.87,345.1,778.21,299.55,778.21z"/>
	<circle class="st5" cx="621.48" cy="556.38" r="31.44"/>
	<circle class="st5" cx="668.5" cy="549.46" r="31.44"/>
	<path class="st5" d="M390.08,440.85l-34.65-17.76c0.23-0.45,2.38-4.59,6.34-10.54c-3.96-1.85-7.71-4.4-11.16-7.78
		c-7.76-7.6-12.02-18.54-11.7-30.02c0.33-11.97,5.47-23.17,14.09-30.72c15.85-13.89,41.49-14.09,58.36-0.46l-24.47,30.29
		c-2.37-1.92-6.65-1.93-8.23-0.55c-0.69,0.6-1.07,2.73-0.7,3.69c0.82,0.45,6.77,2.92,24.63-4.88c17.72-7.74,26.12,7.33,26.47,7.98
		c4.57,8.46,2.3,18.9-5.39,24.82c-0.31,0.24-0.79,0.59-1.46,1.04c-0.51,0.35-1.3,0.87-2.41,1.59l-0.16,0.1
		C401.27,419.69,390.19,440.65,390.08,440.85z"/>
	<path class="st5" d="M237.62,355.05l-77.46,24.81c-9.82,3.15-15.08,13.8-11.63,23.52c30.29,85.23,59.82,126.9,98.66,208.6
		c12.04-16.04,30.73-26.92,52.83-30.67c-30.66-81.02-42.84-125.06-38.61-207.9C262.06,360.64,249.79,351.15,237.62,355.05z"/>
	<path class="st5" d="M309.7,600.59c-17.01,8.35-33.97,16.69-50.46,24.84c-4.69,2.32-6.51,8.06-4.03,12.67l25.72,47.6
		c2.53,4.69,8.51,6.27,13.03,3.44l53.87-33.72c4.81-3.01,5.81-9.63,2.06-13.9c-9.62-10.93-18.49-23.27-28.5-37.86
		C318.79,599.87,313.82,598.57,309.7,600.59z"/>
	<path class="st6" d="M725.07,455.88c8.12,12.26,21.38,20.39,35.32,25.04c13.95,4.65,28.72,6.17,43.34,7.65
		c8.32,0.84,17.34,1.54,24.46-2.85c-15.87,9.97-50.73,10.96-74.17,3.09c-18.8-6.32-35.95-19.02-44.93-36.7
		C713.43,456,719.87,457.37,725.07,455.88z"/>
	<path class="st6" d="M668.13,495.76c-17.77-22.1-30.93-47.88-38.41-75.24c-1.12,9.45-2.94,15.4-0.91,22.91
		c2.03,7.52,5.88,14.42,10.2,20.9C646.62,475.75,655.82,486.09,668.13,495.76z"/>
	<path class="st6" d="M582.1,507.09c-13.3-16.29-24.69-34.13-33.86-53.06c-3.05-6.29-5.9-12.9-6.18-19.88
		c0.1,7.4-0.73,14.81-2.46,22.01c2.96,4.5,5.96,8.97,9,13.42C558.03,483.39,568.17,497.28,582.1,507.09z"/>
	<path class="st6" d="M489.45,488.97c-16.66-21.43-28.4-44.85-36.46-70.77c0,0-0.37,12.65-3.41,18.68
		C457.65,457.1,470.99,475.2,489.45,488.97z"/>
	<path class="st6" d="M706.01,745.45c-14.17-20.42-28.34-40.85-42.51-61.27c1.52,5.58,0.87,11.72-1.77,16.86
		C675.27,715.88,689.68,729.93,706.01,745.45z"/>
	<path class="st6" d="M544.69,624.29c-2.53,8.26-5.07,16.52-7.6,24.77c-4.05,13.19-8.39,26.9-17.92,36.87
		c-4.43-0.32-8.83-1.03-13.13-2.12c8.22-3.47,13.43-11.53,17.83-19.3C530.94,652.01,537.25,639.07,544.69,624.29z"/>
	<linearGradient id="SVGID_6_" gradientUnits="userSpaceOnUse" x1="97.983" y1="538.5112" x2="194.4118" y2="538.5112">
		<stop  offset="0" style="stop-color:#3A3F6F"/>
		<stop  offset="1" style="stop-color:#42537F"/>
	</linearGradient>
	<path class="st7" d="M194.41,545.75c-30.97-16.2-63.25-29.87-96.43-40.85c0.8,22.41,1.6,44.82,2.39,67.23
		C131.05,566.34,161.73,560.56,194.41,545.75z"/>
	<linearGradient id="SVGID_7_" gradientUnits="userSpaceOnUse" x1="125.8919" y1="609.8784" x2="201.6163" y2="609.8784">
		<stop  offset="0" style="stop-color:#3A3F6F"/>
		<stop  offset="1" style="stop-color:#42537F"/>
	</linearGradient>
	<path class="st8" d="M201.62,569.97c-27.54,12.34-53.18,28.92-75.72,48.98c7.7,12.41,18.26,23.05,30.62,30.84
		C166.59,624.33,179.5,600,201.62,569.97z"/>
	
		<linearGradient id="SVGID_8_" gradientUnits="userSpaceOnUse" x1="866.3361" y1="400.607" x2="795.6957" y2="456.5353" gradientTransform="matrix(-0.784 0.6207 0.6207 0.784 1312.7832 -426.1532)">
		<stop  offset="0" style="stop-color:#3A3F6F"/>
		<stop  offset="1" style="stop-color:#42537F"/>
	</linearGradient>
	<path class="st9" d="M882.23,471.64c14.22-31.92,31.05-62.68,50.25-91.88c13.28,18.06,26.57,36.13,39.85,54.19
		C944.69,448.45,917.05,462.96,882.23,471.64z"/>
	
		<linearGradient id="SVGID_9_" gradientUnits="userSpaceOnUse" x1="909.9684" y1="470.8422" x2="839.0936" y2="526.9561" gradientTransform="matrix(-0.784 0.6207 0.6207 0.784 1312.7832 -426.1532)">
		<stop  offset="0" style="stop-color:#3A3F6F"/>
		<stop  offset="1" style="stop-color:#42537F"/>
	</linearGradient>
	<path class="st10" d="M891.62,495.1c29.25-7.42,59.64-10.33,89.77-8.6c1.67,14.51-0.01,29.4-4.86,43.18
		C952.82,515.98,927.6,504.91,891.62,495.1z"/>
	<path class="st11" d="M750.17,339.7c-9.57,3.3-17.97,9.87-23.49,18.35c-5.52,8.48-8.12,18.83-7.26,28.91
		C723.28,370.7,732.21,355.68,750.17,339.7z"/>
	<path class="st11" d="M639.18,300.95c-6.35,0.13-12.7,0.27-19.04,0.4c-0.34,0.01-0.7,0.02-0.98,0.23c-0.53,0.39-0.41,1.2-0.24,1.84
		c1.47,5.49,2.93,10.97,4.4,16.46c-0.82-3.27-1.32-6.62-1.51-9.99c-0.06-1.09-0.07-2.25,0.48-3.19c0.84-1.44,2.67-1.9,4.32-2.13
		C628.26,304.33,630.06,304.15,639.18,300.95z"/>
	<path class="st11" d="M560.67,395.97c-4.96,0.74-9.91,1.48-14.87,2.22c0.5,5.64,1,11.29,1.5,16.93c0.35-4.36,1.05-8.7,2.1-12.95
		c0.13-0.51,0.27-1.04,0.65-1.4c0.33-0.31,0.79-0.44,1.24-0.56C553.09,399.74,554.88,399.26,560.67,395.97z"/>
	<path class="st11" d="M467.57,328.6c-6.89,2.09-13.78,4.18-20.67,6.26c0.02,7.33,2.26,14.64,6.35,20.72
		C450.81,346.11,454.73,335.32,467.57,328.6z"/>
	<path class="st11" d="M318.38,446.26c-7.15-0.99-14.31-1.99-21.46-2.98c-0.72-0.1-1.59-0.13-2,0.46c-0.31,0.45-0.2,1.05-0.08,1.59
		c1.5,6.52,2.99,13.03,4.49,19.55c-2.68-3.78-1.04-9.35,2.36-12.49C305.08,449.23,309.74,447.91,318.38,446.26z"/>
	<path class="st11" d="M361.92,350.9c-5.52,2.23-10.05,6.8-12.22,12.35s-1.94,11.98,0.61,17.36
		C348.96,370.2,353.32,359.23,361.92,350.9z"/>
	<path class="st11" d="M421.31,575.46c-7.04,2.79-14.08,5.58-21.11,8.37c2.47,3.93,4.52,8.13,6.1,12.51
		c-1.82-3.21-0.59-7.45,1.9-10.18C410.68,583.44,414.17,581.89,421.31,575.46z"/>
	<path class="st11" d="M498.75,567.1c-12.97,8.94-20.16,25.58-17.8,41.15c1.21-7.22,2.42-14.49,4.82-21.4
		C488.17,579.93,491.84,573.31,498.75,567.1z"/>
	<path class="st11" d="M612.97,534.47c-5.32,1.45-10.34,4.54-13.3,9.2c-2.95,4.66-3.53,10.97-0.7,15.7
		C598.48,549.39,604.22,539.35,612.97,534.47z"/>
	<path class="st11" d="M647.18,608.63c-4.67,1.58-9.35,3.15-14.02,4.73c2.45,4.62,5,9.19,7.66,13.69
		c-1.38-4.01-2.38-8.15-2.99-12.35C640.12,612.84,642.42,610.97,647.18,608.63z"/>
	<path class="st11" d="M760.18,539.37c-8.66,0.67-17.32,1.34-25.99,2.01c0.88,5.33,2.22,10.59,3.99,15.69
		C741.64,549.14,748.41,542.72,760.18,539.37z"/>
	<path class="st11" d="M824.62,525.89c-5.9,0.77-11.73,2.08-17.39,3.9c1.24,5.22,2.48,10.45,3.72,15.67
		c-1.09-3.64-0.81-7.67,0.78-11.12C813.31,530.9,816.18,528.05,824.62,525.89z"/>
</g>
</svg>
